<svg width="21" height="22" fill="none" xmlns="http://www.w3.org/2000/svg"><path d="M18 .5H3c-1.688 0-3 1.36-3 3v15c0 1.688 1.313 3 3 3h15c1.64 0 3-1.313 3-3v-15c0-1.64-1.36-3-3-3zm.75 18c0 .422-.375.75-.75.75H3a.74.74 0 0 1-.75-.75v-15c0-.375.328-.75.75-.75h15c.375 0 .75.375.75.75v15zM12.797 5.469c-.422-.14-.89-.094-1.219.234l-4.875 4.5c-.234.188-.328.516-.328.797 0 .328.094.656.328.844l4.875 4.5c.328.328.797.375 1.219.187.422-.14.703-.562.703-1.031v-9c0-.422-.281-.844-.703-1.031z" fill="#0FB7FF"/></svg>