<svg width="21" height="22" fill="none" xmlns="http://www.w3.org/2000/svg"><path d="M9.375 5.703c-.328-.328-.797-.375-1.219-.234-.422.187-.656.61-.656 1.031v9c0 .469.234.89.656 1.031.422.188.89.14 1.219-.187l4.875-4.5c.234-.188.375-.516.375-.844 0-.281-.14-.61-.375-.797l-4.875-4.5zM18 .5H3c-1.688 0-3 1.36-3 3v15c0 1.688 1.313 3 3 3h15c1.64 0 3-1.313 3-3v-15c0-1.64-1.36-3-3-3zm.75 18c0 .422-.375.75-.75.75H3a.74.74 0 0 1-.75-.75v-15c0-.375.328-.75.75-.75h15c.375 0 .75.375.75.75v15z" fill="#0FB7FF"/></svg>