<?xml version="1.0" encoding="UTF-8" standalone="no"?>
<!-- Created with Inkscape (http://www.inkscape.org/) -->

<svg
   width="210mm"
   height="210mm"
   viewBox="0 0 210 210"
   version="1.1"
   id="svg641"
   inkscape:version="1.2 (dc2aedaf03, 2022-05-15)"
   sodipodi:docname="logo-dotrix-social.svg"
   xmlns:inkscape="http://www.inkscape.org/namespaces/inkscape"
   xmlns:sodipodi="http://sodipodi.sourceforge.net/DTD/sodipodi-0.dtd"
   xmlns="http://www.w3.org/2000/svg"
   xmlns:svg="http://www.w3.org/2000/svg">
  <sodipodi:namedview
     id="namedview643"
     pagecolor="#ffffff"
     bordercolor="#999999"
     borderopacity="1"
     inkscape:showpageshadow="0"
     inkscape:pageopacity="0"
     inkscape:pagecheckerboard="0"
     inkscape:deskcolor="#d1d1d1"
     inkscape:document-units="mm"
     showgrid="false"
     inkscape:zoom="0.2102413"
     inkscape:cx="-932.26211"
     inkscape:cy="563.63806"
     inkscape:window-width="2880"
     inkscape:window-height="1715"
     inkscape:window-x="0"
     inkscape:window-y="0"
     inkscape:window-maximized="1"
     inkscape:current-layer="layer1" />
  <defs
     id="defs638" />
  <g
     inkscape:label="Vrstva 1"
     inkscape:groupmode="layer"
     id="layer1">
    <rect
       style="opacity:1;fill:#0fb7ff;fill-opacity:1;stroke:none;stroke-width:0.677445;stroke-opacity:1"
       id="rect2309"
       width="210"
       height="210"
       x="0"
       y="3.5527137e-15" />
    <g
       id="g5085"
       transform="matrix(5.6625862,0,0,5.6625862,14.400348,14.398338)"
       style="fill:#3771c8"
       inkscape:export-filename="/home/elias/Obrázky/dotrix/the-problem.png"
       inkscape:export-xdpi="20.097666"
       inkscape:export-ydpi="20.097666">
      <path
         d="M 15.9997,0 C 15.5808,0 15.1619,0.1606 14.8409,0.481595 L 9.43289,5.8896 c -0.642,0.642 -0.642,1.67564 0,2.31764 L 11.969,10.7434 c 1.2069,-0.95678 2.7018,-1.47747 4.2419,-1.47751 1.4369,-2e-5 2.8371,0.45321 4.0014,1.29511 l 2.3539,-2.3537 c 0.642,-0.642 0.642,-1.67565 0,-2.31765 L 17.1582,0.481645 C 16.8372,0.160655 16.4183,5e-5 15.9994,5e-5 Z M 7.04769,8.952 c -0.41891,0 -0.8378,0.16046 -1.1588,0.48145 l -5.408,5.40795 c -0.642,0.642 -0.642,1.6757 0,2.3177 l 5.408,5.408 c 0.642,0.642 1.67565,0.642 2.31765,0 L 10.6779,20.0958 C 9.8359,18.9315 9.38262,17.5312 9.38259,16.0944 9.3826,14.6116 9.86526,13.1691 10.7576,11.9849 L 8.20654,9.4338 C 7.88555,9.1128 7.46664,8.95235 7.04774,8.95235 Z m 17.90401,0 c -0.4189,0 -0.8378,0.16046 -1.1588,0.48145 l -2.3148,2.31465 c 1.0094,1.2233 1.5615,2.7599 1.5615,4.3459 -10e-5,1.5401 -0.5208,3.035 -1.4776,4.2419 l 2.2309,2.2308 c 0.642,0.642 1.6756,0.642 2.3176,0 l 5.408,-5.4079 c 0.642,-0.642 0.642,-1.6757 0,-2.3177 l -5.408,-5.408 C 25.7895,9.1121 25.3706,8.95165 24.9517,8.95165 Z m -8.7715,2.0627 c -1.3418,0.0081 -2.6258,0.5467 -3.5717,1.4983 -0.9459,0.9517 -1.4768,2.2389 -1.4768,3.5807 -10e-5,0.6671 0.1313,1.3276 0.3865,1.9439 0.2553,0.6163 0.6294,1.1763 1.1011,1.648 0.4717,0.4717 1.0317,0.8458 1.648,1.1011 0.6163,0.2552 1.2768,0.3866 1.9439,0.3865 0.667,0 1.3275,-0.1314 1.9438,-0.3867 0.6162,-0.2552 1.1761,-0.6294 1.6478,-1.1011 0.4716,-0.4717 0.8457,-1.0316 1.1009,-1.6479 0.2552,-0.6163 0.3866,-1.2768 0.3865,-1.9438 0,-0.667 -0.1314,-1.3274 -0.3866,-1.9436 -0.2553,-0.6163 -0.6294,-1.1762 -1.101,-1.6478 -0.4716,-0.4716 -1.0315,-0.8457 -1.6478,-1.101 -0.6162,-0.2552 -1.2766,-0.3866 -1.9436,-0.3866 -0.0103,0 -0.0206,0 -0.0309,0 z m -4.3149,10.346 -2.43221,2.4322 c -0.642,0.642 -0.642,1.6757 0,2.3177 l 5.40801,5.408 c 0.642,0.642 1.6756,0.642 2.3176,0 l 5.408,-5.408 c 0.642,-0.642 0.642,-1.6757 0,-2.3177 l -2.2458,-2.2458 c -1.1842,0.8924 -2.6267,1.3751 -4.1095,1.3751 -1.5859,0 -3.1225,-0.5521 -4.3458,-1.5615 z"
         fill="#ffffff"
         id="path5083"
         style="fill:#ffffff" />
    </g>
  </g>
</svg>
