<svg width="30" height="22" fill="none" xmlns="http://www.w3.org/2000/svg"><path d="M24.563 2.281h-.047A22.694 22.694 0 0 0 18.938.547C18.89.547 18.89.5 18.89.5l-.047.047A10.3 10.3 0 0 0 18.14 2a23.724 23.724 0 0 0-3.188-.234c-1.078 0-2.11.093-3.14.234a10.31 10.31 0 0 0-.704-1.453h-.093A22.695 22.695 0 0 0 5.437 2.28h-.046C1.828 7.625.844 12.828 1.312 17.984c0 0 0 .047.047.047C3.375 19.578 5.72 20.75 8.25 21.5h.094c.515-.75.984-1.5 1.406-2.297v-.047c0-.047-.047-.047-.047-.093-.75-.282-1.5-.61-2.156-1.032-.047 0-.047 0-.047-.047s0-.047.047-.093c.14-.094.281-.188.422-.328h.093c4.5 2.062 9.376 2.062 13.829 0h.093c.141.14.282.234.422.328.047.047.047.047.047.093 0 .047 0 .047-.047.047-.703.422-1.406.75-2.156 1.032-.047.046-.047.046-.047.093v.047c.422.797.89 1.547 1.406 2.297h.094a22.176 22.176 0 0 0 6.89-3.469c.048 0 .048-.047.048-.047.562-5.953-.985-11.109-4.078-15.703zM10.405 14.844c-1.36 0-2.484-1.266-2.484-2.766 0-1.547 1.125-2.765 2.484-2.765 1.406 0 2.485 1.218 2.485 2.765 0 1.5-1.125 2.766-2.485 2.766zm9.14 0c-1.358 0-2.437-1.266-2.437-2.766 0-1.547 1.078-2.765 2.438-2.765 1.406 0 2.531 1.218 2.484 2.765 0 1.5-1.078 2.766-2.484 2.766z" fill="#fff"/></svg>