<?xml version="1.0" encoding="UTF-8"?>
<svg width="24" height="24" version="1.1" viewBox="0 0 24 24" xmlns="http://www.w3.org/2000/svg">
 <!--! Font Awesome Pro 6.2.0 by @fontawesome - https://fontawesome.com License - https://fontawesome.com/license (Commercial License) Copyright 2022 Fonticons, Inc. -->
 <path d="m12.003 5.8455c-3.4052 0-6.1519 2.7467-6.1519 6.152 0 3.4053 2.7467 6.152 6.1519 6.152 3.4052 0 6.1519-2.7467 6.1519-6.152 0-3.4053-2.7467-6.152-6.1519-6.152zm0 10.152c-2.2006 0-3.9996-1.7937-3.9996-3.9996 0-2.2059 1.7936-3.9996 3.9996-3.9996 2.2059 0 3.9996 1.7937 3.9996 3.9996 0 2.2059-1.799 3.9996-3.9996 3.9996zm7.8385-10.403c0 0.79778-0.6425 1.4349-1.4349 1.4349-0.79777 0-1.4349-0.64251-1.4349-1.4349s0.6425-1.4349 1.4349-1.4349c0.79241 0 1.4349 0.64251 1.4349 1.4349zm4.0745 1.4564c-0.09102-1.9222-0.53006-3.6248-1.9382-5.0276-1.4028-1.4028-3.1054-1.8419-5.0276-1.9382-1.981-0.11244-7.9188-0.11244-9.8998 0-1.9168 0.09102-3.6194 0.53007-5.0276 1.9329-1.4081 1.4028-1.8418 3.1055-1.9382 5.0276-0.11244 1.9811-0.11244 7.9189 0 9.9 0.091021 1.9222 0.53006 3.6248 1.9382 5.0276 1.4081 1.4028 3.1054 1.8419 5.0276 1.9382 1.981 0.11244 7.9188 0.11244 9.8998 0 1.9221-0.09102 3.6248-0.53007 5.0276-1.9382 1.4028-1.4028 1.8418-3.1055 1.9382-5.0276 0.11244-1.9811 0.11244-7.9136 0-9.8946zm-2.5593 12.02c-0.41762 1.0494-1.2261 1.8579-2.2809 2.2809-1.5795 0.62645-5.3274 0.48188-7.0728 0.48188-1.7455 0-5.4987 0.13921-7.0728-0.48188-1.0494-0.41763-1.8579-1.2261-2.2809-2.2809-0.62644-1.5795-0.48187-5.3275-0.48187-7.0729 0-1.7455-0.13921-5.4988 0.48187-7.0729 0.41762-1.0494 1.2261-1.8579 2.2809-2.2809 1.5795-0.62644 5.3274-0.48188 7.0728-0.48188 1.7455 0 5.4987-0.13921 7.0728 0.48188 1.0494 0.41763 1.8579 1.2261 2.2809 2.2809 0.62644 1.5795 0.48187 5.3275 0.48187 7.0729 0 1.7455 0.14456 5.4988-0.48187 7.0729z" fill="#fff" stroke-width=".053542"/>
</svg>
