<svg width="42" height="42" fill="#fff" xmlns="http://www.w3.org/2000/svg"><g clip-path="url(#a)"><path d="M21 0c-.55 0-1.1.21-1.521.632L12.38 7.73a2.146 2.146 0 0 0 0 3.042l3.328 3.329a8.962 8.962 0 0 1 10.82-.24l3.09-3.089c.842-.843.842-2.2 0-3.042L22.52.632A2.144 2.144 0 0 0 21 0zM9.25 11.75c-.55 0-1.1.21-1.52.631L.63 19.48a2.146 2.146 0 0 0 0 3.042L7.73 29.62c.843.843 2.2.843 3.042 0l3.244-3.243a8.962 8.962 0 0 1 .104-10.646l-3.348-3.348a2.144 2.144 0 0 0-1.52-.632zm23.5 0c-.55 0-1.1.21-1.522.631L28.19 15.42a8.962 8.962 0 0 1 .11 11.272l2.928 2.928c.843.843 2.2.843 3.042 0l7.098-7.098c.843-.843.843-2.2 0-3.042L34.27 12.38a2.144 2.144 0 0 0-1.52-.632zm-11.514 2.707a6.666 6.666 0 1 0 .041 0h-.04zm-5.663 13.579-3.192 3.192a2.146 2.146 0 0 0 0 3.042l7.098 7.098c.843.843 2.2.843 3.042 0l7.098-7.098c.843-.843.843-2.2 0-3.042l-2.948-2.947a8.962 8.962 0 0 1-11.097-.245z" fill="#fff"/></g><defs><clipPath id="a"><path fill="#fff" d="M0 0h42v42H0z"/></clipPath></defs></svg>