<svg width="42" height="42" viewBox="0 0 42 42" fill="none" xmlns="http://www.w3.org/2000/svg">
<g clip-path="url(#clip0_135_41)">
<path d="M20.9996 0C20.4498 0 19.9 0.210788 19.4787 0.632093L12.3807 7.73009C11.5381 8.57272 11.5381 9.92938 12.3807 10.772L15.7094 14.1007C17.2934 12.8449 19.2554 12.1615 21.2769 12.1615C23.1627 12.1615 25.0005 12.7563 26.5287 13.8614L29.6182 10.7721C30.4608 9.92945 30.4608 8.57278 29.6182 7.73016L22.5202 0.632159C22.0989 0.21086 21.5491 6.5625e-05 20.9993 6.5625e-05L20.9996 0ZM9.2501 11.7495C8.70028 11.7495 8.15049 11.9601 7.72918 12.3814L0.631175 19.4794C-0.21145 20.322 -0.21145 21.6787 0.631175 22.5213L7.72918 29.6193C8.5718 30.4619 9.92847 30.4619 10.7711 29.6193L14.0147 26.3757C12.9096 24.8475 12.3147 23.0098 12.3147 21.1239C12.3147 19.1777 12.9482 17.2845 14.1194 15.7302L10.7711 12.3819C10.3498 11.9606 9.79997 11.75 9.25017 11.75L9.2501 11.7495ZM32.7491 11.7495C32.1993 11.7495 31.6495 11.9601 31.2282 12.3814L28.19 15.4194C29.5148 17.025 30.2395 19.0417 30.2395 21.1234C30.2394 23.1448 29.556 25.1068 28.3002 26.6909L31.2282 29.6189C32.0708 30.4615 33.4275 30.4615 34.2701 29.6189L41.3681 22.5209C42.2107 21.6782 42.2107 20.3216 41.3681 19.4789L34.2701 12.3809C33.8488 11.9596 33.299 11.749 32.7492 11.749L32.7491 11.7495ZM21.2365 14.4568C19.4755 14.4674 17.7902 15.1744 16.5487 16.4234C15.3071 17.6724 14.6103 19.3619 14.6104 21.123C14.6103 21.9985 14.7826 22.8655 15.1177 23.6744C15.4527 24.4833 15.9437 25.2183 16.5628 25.8373C17.1819 26.4564 17.9169 26.9475 18.7258 27.2825C19.5347 27.6175 20.4017 27.7899 21.2772 27.7898C22.1527 27.7898 23.0196 27.6174 23.8284 27.2823C24.6372 26.9473 25.3721 26.4562 25.9911 25.8371C26.6102 25.218 27.1012 24.4831 27.4361 23.6742C27.7711 22.8654 27.9435 21.9985 27.9434 21.123C27.9434 20.2476 27.771 19.3807 27.4359 18.5719C27.1009 17.7632 26.6099 17.0283 25.9909 16.4093C25.3719 15.7903 24.637 15.2992 23.8282 14.9642C23.0195 14.6292 22.1526 14.4568 21.2772 14.4568C21.2637 14.4568 21.2501 14.4568 21.2366 14.4568H21.2365ZM15.5733 28.0359L12.3809 31.2282C11.5383 32.0709 11.5383 33.4275 12.3809 34.2702L19.4789 41.3682C20.3216 42.2108 21.6782 42.2108 22.5209 41.3682L29.6189 34.2702C30.4615 33.4275 30.4615 32.0709 29.6189 31.2282L26.6712 28.2806C25.117 29.4519 23.2237 30.0854 21.2775 30.0854C19.1959 30.0853 17.1793 29.3607 15.5737 28.0359H15.5733Z" fill="#0FB7FF"/>
</g>
<defs>
<clipPath id="clip0_135_41">
<rect width="42" height="42" fill="white"/>
</clipPath>
</defs>
</svg>
