<svg width="32" height="32" viewBox="0 0 32 32" fill="white" xmlns="http://www.w3.org/2000/svg">
<g>
<path d="M15.9997 0C15.5808 0 15.1619 0.1606 14.8409 0.481595L9.43289 5.8896C8.79089 6.5316 8.79089 7.56524 9.43289 8.20724L11.969 10.7434C13.1759 9.78662 14.6708 9.26593 16.2109 9.26589C17.6478 9.26587 19.048 9.7191 20.2123 10.561L22.5662 8.2073C23.2082 7.5653 23.2082 6.53165 22.5662 5.88965L17.1582 0.481645C16.8372 0.160655 16.4183 5e-05 15.9994 5e-05L15.9997 0ZM7.04769 8.952C6.62878 8.952 6.20989 9.11246 5.88889 9.43345L0.48089 14.8414C-0.16111 15.4834 -0.16111 16.5171 0.48089 17.1591L5.88889 22.5671C6.53089 23.2091 7.56454 23.2091 8.20654 22.5671L10.6779 20.0958C9.8359 18.9315 9.38262 17.5312 9.38259 16.0944C9.3826 14.6116 9.86526 13.1691 10.7576 11.9849L8.20654 9.4338C7.88555 9.1128 7.46664 8.95235 7.04774 8.95235L7.04769 8.952ZM24.9517 8.952C24.5328 8.952 24.1139 9.11246 23.7929 9.43345L21.4781 11.7481C22.4875 12.9714 23.0396 14.508 23.0396 16.094C23.0395 17.6341 22.5188 19.129 21.562 20.3359L23.7929 22.5667C24.4349 23.2087 25.4685 23.2087 26.1105 22.5667L31.5185 17.1588C32.1605 16.5168 32.1605 15.4831 31.5185 14.8411L26.1105 9.4331C25.7895 9.1121 25.3706 8.95165 24.9517 8.95165L24.9517 8.952ZM16.1802 11.0147C14.8384 11.0228 13.5544 11.5614 12.6085 12.513C11.6626 13.4647 11.1317 14.7519 11.1317 16.0937C11.1316 16.7608 11.263 17.4213 11.5182 18.0376C11.7735 18.6539 12.1476 19.2139 12.6193 19.6856C13.091 20.1573 13.651 20.5314 14.2673 20.7867C14.8836 21.0419 15.5441 21.1733 16.2112 21.1732C16.8782 21.1732 17.5387 21.0418 18.155 20.7865C18.7712 20.5313 19.3311 20.1571 19.8028 19.6854C20.2744 19.2137 20.6485 18.6538 20.9037 18.0375C21.1589 17.4212 21.2903 16.7607 21.2902 16.0937C21.2902 15.4267 21.1588 14.7663 20.9036 14.1501C20.6483 13.5338 20.2742 12.9739 19.8026 12.5023C19.331 12.0307 18.7711 11.6566 18.1548 11.4013C17.5386 11.1461 16.8782 11.0147 16.2112 11.0147C16.2009 11.0147 16.1906 11.0147 16.1803 11.0147H16.1802ZM11.8653 21.3607L9.43309 23.7929C8.79109 24.4349 8.79109 25.4686 9.43309 26.1106L14.8411 31.5186C15.4831 32.1606 16.5167 32.1606 17.1587 31.5186L22.5667 26.1106C23.2087 25.4686 23.2087 24.4349 22.5667 23.7929L20.3209 21.5471C19.1367 22.4395 17.6942 22.9222 16.2114 22.9222C14.6255 22.9222 13.0889 22.3701 11.8656 21.3607H11.8653Z" fill="white"/>
</g>
</svg>
