<svg width="24" height="24" xmlns="http://www.w3.org/2000/svg" viewBox="0 0 22 22">
 <path d="m10 0c-5.07 0-10 4.06-10 10 3.38-1.03 1.36 5.06 1.36 5.06s2.72-5.28-0.467-5.96c0 0 0.474-2.28 2.12-2.97 0 0-0.533 2.34 1.61 3.6-2.94-3.07 0.49-6.31 2.17-6.06 0 0 2.42-2.08 2.49-0.116 0.522-0.112 1.34-0.423 1.79 0.0899 0.408 0.606 0.547 1.2 0.745 1.41 0.269 0.382-0.382 0.374-0.382 0.374 0.65 0.01 1.73 0.186 3.33 1 0.288 0.173 0.368 0.29 0.413 0.91 1.49 0.373 1.84 0.485 3.25 1.12 0.321 0.185 0.0155 1.29-0.357 1.71-0.262-1.08-0.153-0.995-0.389-0.748-0.423-1.21-0.143-0.366-0.247 0.453 0.303-0.268 0.245-0.235 0.502 0.546-0.12 0.657-0.613 1.17-1.06 1.8-0.0296-0.298 0.0662-0.586 0.0072-0.585-0.569 6e-3 -0.985-0.326-1.45-0.53-2.13-0.489-3.01 1.43-0.676 1.82 0.559 0.0423 0.615-0.497 1.39 0.144l0.648-0.622-0.186 0.637c0.249 0.567-0.727 1.28-0.935 1.8-0.0805 0.207-0.0671 0.59-0.0859 0.911-0.323-0.376-0.457-1.46-0.576-0.513-0.204-0.184-0.157-1.29-0.354-0.421-0.0978-0.447-2.15-1.55-3.2-1.02-0.354-3.02-1.95-3.61-2.42-6.06l-0.417 0.552c-0.0879-0.509 0.372-2.34 1.17-3.09l-1.02-0.16s0.777-0.557 1.64-0.232c-1.07-0.579-2.08-0.0563-2.47 0.432l1.14 0.228c-0.807 1.56-0.963 2.25-0.877 4.3l0.576-0.952c0.329 1.73 3.64 4.14 0.023 10.1 0.546-2.1-0.624-3.39-0.624-3.39 6.42e-5 4e-5 0.862 2.7-1.22 3.94 0 0 0.917 0.502 3.04 0.502 5.53-4e-5 9.99-4.47 9.99-9.99-1e-6 -5.53-4.47-10-9.99-10zm-2.68 6.36s-1.64 0.038-2.21 0.889c0.822 1.2 1.87 0.824 1.87 0.824-1.16-0.406-1.39-0.842-1.39-0.842s0.657-0.39 1.18-0.289c0 0 0.19 0.519 0.465 0.808 0 0-0.165-1.07 0.0747-1.39zm4.82 1.04s1.05 0.561 1.67 0.491c0.615 0.212 1.19 0.369 0.185-0.166 0 0-0.0356-0.332-0.226-0.594-0.547-0.0345-1.07 0.339-1.63 0.27z" />
</svg>